<?xml version="1.0" ?><!DOCTYPE svg  PUBLIC '-//W3C//DTD SVG 1.1//EN'  'http://www.w3.org/Graphics/SVG/1.1/DTD/svg11.dtd'><svg height="256px" style="shape-rendering:geometricPrecision; text-rendering:geometricPrecision; image-rendering:optimizeQuality; fill-rule:evenodd; clip-rule:evenodd" version="1.1" viewBox="0 0 256000 255998" width="256px" xml:space="preserve" xmlns="http://www.w3.org/2000/svg" xmlns:xlink="http://www.w3.org/1999/xlink"><defs><style type="text/css">
   <![CDATA[
    .fil7 {fill:none}
    .fil6 {fill:#ED3237}
    .fil0 {fill:#F5C136}
    .fil3 {fill:#F5C535}
    .fil1 {fill:#42B7A5}
    .fil4 {fill:#40B7A5}
    .fil2 {fill:#0689C7}
    .fil5 {fill:#0688C7}
   ]]>
  </style></defs><g id="Layer_x0020_1"><g id="_394354592"><path class="fil0" d="M136954 227221l99721 -35641c19534,-6199 27717,-21899 7984,-29609 -26388,-11613 -65567,-12319 -84178,-6964l-23405 7736 -68 35805 20 -10911 58551 -20786c7732,-3085 32982,2253 20531,7524l-79110 28276 -46 24570z"/><path class="fil1" d="M138770 162183l-1694 560 -68 35805 20 -10911 39644 -14074 -37902 -11380zm60569 18186l-62339 22282 -2 1060 34521 11156 65156 -23287 -37336 -11211z"/><path class="fil2" d="M236675 191580c19534,-6199 27717,-21899 7984,-29609 -26388,-11613 -65567,-12319 -84178,-6964l-21711 7176 37902 11380 18907 -6712c7732,-3085 32982,2253 20531,7524l-16771 5994 37336 11211z"/><path class="fil3" d="M94948 137527l-75623 27029c-19534,6198 -27717,21899 -7984,29609 25913,11405 64161,12288 83151,7246l174 -24283 -34245 12157c-7732,3085 -32982,-2254 -20531,-7524l54883 -19617 175 -24617z"/><path class="fil4" d="M77396 143801l-58071 20755c-576,183 -1142,376 -1700,574l36127 11676 41021 -14662 94 -13144 -17401 -5224 -70 25zm17178 46198l92 -12871 -19024 6753 18932 6118z"/><polygon class="fil5" points="94948,137527 77466,143776 94867,149000 "/><path class="fil6" d="M94399 214557l42555 12664 295 -157561c-204,-13624 16703,-8777 15391,4123l0 65233c20175,15215 49183,424 48115,-29706 218,-31268 -10238,-52577 -44510,-62621l-60521 -17913 -1325 185781z"/></g></g><rect class="fil7" height="255998" width="255998" x="1"/></svg>