<?xml version="1.0" ?><!DOCTYPE svg  PUBLIC '-//W3C//DTD SVG 1.1//EN'  'http://www.w3.org/Graphics/SVG/1.1/DTD/svg11.dtd'><svg height="512px" style="enable-background:new 0 0 512 512;" version="1.1" viewBox="0 0 512 512" width="512px" xml:space="preserve" xmlns="http://www.w3.org/2000/svg" xmlns:xlink="http://www.w3.org/1999/xlink"><g id="comp_x5F_387-xbox"><g><path d="M149.627,58.5c44.23-2.319,101.721,31.99,105.985,32.825c0.65,0.093,9.645-3.895,20.031-8.994    c59.251-28.838,87.162-23.923,99.588-23.367C315.979,22.523,233.637,12.6,158.344,48.115    C136.646,58.408,136.089,59.149,149.627,58.5z"/><path d="M193.487,151.968c-27.54-24.943-53.873-49.979-80.116-58.788c-14.094-4.729-15.115-4.451-26.612,7.511    c-27.077,28.188-49.609,73.903-55.913,113.496c-5.009,31.713-5.658,40.616-3.896,56.101    c5.192,46.825,16.041,79.188,37.554,112.105c8.808,13.538,11.22,16.041,8.623,9.179c-3.895-10.199-0.279-34.771,8.81-59.344    C95.198,296.064,131.917,227.541,193.487,151.968z"/><path d="M482.422,210.849c-15.67-74.18-62.589-120.822-69.175-120.822c-6.77,0-22.438,6.027-33.381,12.889    c-21.604,13.445-38.018,29.115-59.622,48.959c39.316,49.423,94.766,129.26,113.96,187.584c6.306,19.194,8.995,38.109,6.861,48.495    c-1.574,7.882-1.574,7.882,1.3,4.266c5.656-7.139,18.451-29.023,23.551-40.336c6.863-15.021,13.91-37.274,17.247-54.43    C487.15,276.593,486.78,231.805,482.422,210.849z"/><path d="M257.469,212.148c-4.544-1.021-45.807,35.884-75.479,67.318c-52.206,55.45-82.712,104.039-82.712,131.766    c0,13.814,5.841,20.769,31.713,37.646c30.785,20.027,66.669,32.729,102.091,36.163c29.673,2.873,65.649-0.836,93.099-9.458    c33.286-10.478,78.538-37.833,85.863-51.834c9.55-18.453-9.364-59.716-50.443-110.066    C335.637,281.783,266.185,214.094,257.469,212.148z"/></g></g><g id="Layer_1"/></svg>