<?xml version="1.0" ?><!DOCTYPE svg  PUBLIC '-//W3C//DTD SVG 1.1//EN'  'http://www.w3.org/Graphics/SVG/1.1/DTD/svg11.dtd'><svg height="512px" style="enable-background:new 0 0 512 512;" version="1.1" viewBox="0 0 512 512" width="512px" xml:space="preserve" xmlns="http://www.w3.org/2000/svg" xmlns:xlink="http://www.w3.org/1999/xlink"><g id="comp_x5F_262-playstation"><g><path d="M481.93,350.272c-9.024,11.339-30.984,19.404-30.984,19.404l-163.788,58.775v-43.361l120.505-42.964    c13.655-4.873,15.813-11.819,4.632-15.493c-11.1-3.674-31.225-2.635-44.879,2.316l-80.258,28.351v-45.042    c18.527-6.229,37.613-10.859,60.451-13.416c32.663-3.594,72.591,0.48,103.975,12.379    C486.881,322.402,490.874,338.932,481.93,350.272L481.93,350.272z M302.729,276.404V165.401c0-13.016-2.396-24.995-14.614-28.429    c-9.344-3.035-15.171,5.671-15.171,18.687v277.824l-74.908-23.798V78.517c31.862,5.911,78.26,19.885,103.177,28.27    c63.486,21.801,84.968,48.953,84.968,110.043C386.181,276.323,349.446,298.925,302.729,276.404L302.729,276.404z M60.521,380.536    c-36.255-10.22-42.323-31.541-25.793-43.761c15.252-11.338,41.285-19.884,41.285-19.884l107.408-38.172v43.521l-77.302,27.633    c-13.654,4.871-15.731,11.817-4.632,15.49c11.101,3.674,31.224,2.637,44.88-2.314l37.054-13.495v38.969    C142.216,395.95,102.446,394.352,60.521,380.536L60.521,380.536z"/></g></g><g id="Layer_1"/></svg>